<svg width="34" height="32" viewBox="0 0 34 32" fill="none" xmlns="http://www.w3.org/2000/svg">
<path d="M29.3372 17.0249H9.85834L7.47705 5.51392H31.2899C31.4642 5.51454 31.6359 5.55206 31.7935 5.62389C31.9509 5.6957 32.0902 5.80006 32.2014 5.92958C32.3129 6.05908 32.3934 6.21063 32.4374 6.37349C32.4815 6.53637 32.4881 6.7066 32.4567 6.87222L30.5041 16.081C30.4586 16.3473 30.3157 16.5889 30.1016 16.7621C29.8875 16.9353 29.6163 17.0285 29.3372 17.0249Z" stroke="white" stroke-width="1.71429" stroke-linecap="round" stroke-linejoin="round"/>
<path d="M7.4769 5.51395L6.47676 1.83043C6.42187 1.57043 6.27573 1.33674 6.06311 1.16893C5.85048 1.00112 5.58442 0.909491 5.30993 0.909546H1.52368" stroke="white" stroke-width="1.71429" stroke-linecap="round" stroke-linejoin="round"/>
<path d="M9.8584 17.0249L10.8585 21.8595C10.9134 22.1195 11.0596 22.3532 11.2722 22.521C11.4848 22.6888 11.7509 22.7804 12.0254 22.7804H26.5274" stroke="white" stroke-width="1.71429" stroke-linecap="round" stroke-linejoin="round"/>
<path d="M25.3364 30.8381C24.6789 30.8381 24.1458 30.3226 24.1458 29.687C24.1458 29.0514 24.6789 28.5359 25.3364 28.5359C25.9941 28.5359 26.527 29.0514 26.527 29.687C26.527 30.3226 25.9941 30.8381 25.3364 30.8381Z" stroke="white" stroke-width="1.71429" stroke-linecap="round" stroke-linejoin="round"/>
<path d="M13.4301 30.8381C12.7726 30.8381 12.2395 30.3226 12.2395 29.687C12.2395 29.0514 12.7726 28.5359 13.4301 28.5359C14.0877 28.5359 14.6208 29.0514 14.6208 29.687C14.6208 30.3226 14.0877 30.8381 13.4301 30.8381Z" stroke="white" stroke-width="1.71429" stroke-linecap="round" stroke-linejoin="round"/>
</svg>
